<svg xmlns="http://www.w3.org/2000/svg" xmlns:xlink="http://www.w3.org/1999/xlink" width="180" height="54.748" viewBox="0 0 180 54.748"><defs><style>.a{clip-path:url(#a);}.b{fill:#1b6186;}.c{fill:#f7ca17;}</style><clipPath id="a"><rect width="180" height="54.748" transform="translate(-323 230)"/></clipPath></defs><g class="a" transform="translate(323 -230)"><g transform="translate(-311.675 237.301)"><path class="b" d="M13.82-16.566a4.331,4.331,0,0,1,.8,2.633,4.147,4.147,0,0,1-.744,2.468,4.779,4.779,0,0,1-2.113,1.639,8.077,8.077,0,0,1-3.219.586H2.078A1.862,1.862,0,0,1,.544-9.773a1.862,1.862,0,0,1-.533-1.534V-24.286A1.862,1.862,0,0,1,0-24.5a1.871,1.871,0,0,1,1.862-1.862,1.862,1.862,0,0,1,.217.013h6.26a6.965,6.965,0,0,1,4.291,1.2A3.873,3.873,0,0,1,14.222-21.9a3.95,3.95,0,0,1-.7,2.317,4.062,4.062,0,0,1-1.975,1.474,4.371,4.371,0,0,1,2.277,1.54ZM4.388-19.613H7.574A3.443,3.443,0,0,0,9.424-20a1.4,1.4,0,0,0,.586-1.244,1.489,1.489,0,0,0-.586-1.316,3.244,3.244,0,0,0-1.849-.414H4.388Zm5.535,6.582a2.023,2.023,0,0,0,0-2.8,3.291,3.291,0,0,0-1.909-.428H4.388v3.646H8.015a3.292,3.292,0,0,0,1.883-.4Z" transform="translate(48.177 39.368)"/><path class="b" d="M27.529-7.226A5.4,5.4,0,0,1,25.219-9.4a7.088,7.088,0,0,1,0-6.582,5.443,5.443,0,0,1,2.3-2.145,8.376,8.376,0,0,1,6.957,0,5.483,5.483,0,0,1,2.3,2.146,7.087,7.087,0,0,1,0,6.582,5.477,5.477,0,0,1-2.3,2.179,8.219,8.219,0,0,1-6.944,0ZM33.3-12.708q0-3.008-2.31-3.014t-2.31,3.014q0,3.014,2.31,3.014T33.3-12.708Z" transform="translate(39.832 36.814)"/><path class="b" d="M63.137-18.552a1.764,1.764,0,0,1,.987-.3,2.146,2.146,0,0,1,1.435.546,1.705,1.705,0,0,1,.658,1.316,1.975,1.975,0,0,1-.2.8L62.071-7.752a2.021,2.021,0,0,1-.816.935,2.33,2.33,0,0,1-1.2.329,2.239,2.239,0,0,1-1.191-.329,2.034,2.034,0,0,1-.8-.935l-2.31-5.134L53.58-7.752a1.9,1.9,0,0,1-.79.935,2.3,2.3,0,0,1-1.2.329,2.33,2.33,0,0,1-1.2-.329,2.139,2.139,0,0,1-.836-.935L45.6-16.189a1.856,1.856,0,0,1-.171-.777,1.693,1.693,0,0,1,.658-1.356,2.3,2.3,0,0,1,1.494-.546,1.975,1.975,0,0,1,1.06.3,1.9,1.9,0,0,1,.717.941l2.311,5.615L54.021-17.6a1.883,1.883,0,0,1,.757-.921,2.05,2.05,0,0,1,2.185,0,1.882,1.882,0,0,1,.757.921l2.429,5.621,2.264-5.667A1.876,1.876,0,0,1,63.137-18.552Z" transform="translate(32.651 36.806)"/><path class="b" d="M97.538-17.734a5.782,5.782,0,0,1,1.073,3.949v5.265a1.837,1.837,0,0,1-.619,1.5,2.678,2.678,0,0,1-3.093,0,1.837,1.837,0,0,1-.619-1.5V-13.87a2.046,2.046,0,0,0-.342-1.356,1.238,1.238,0,0,0-.994-.395,1.693,1.693,0,0,0-1.362.612,2.509,2.509,0,0,0-.514,1.679v4.811a1.83,1.83,0,0,1-.6,1.5,2.684,2.684,0,0,1-3.1,0,1.818,1.818,0,0,1-.619-1.5V-13.87a2.047,2.047,0,0,0-.342-1.356,1.238,1.238,0,0,0-.994-.395,1.639,1.639,0,0,0-1.351.612,2.541,2.541,0,0,0-.5,1.679v4.811a1.837,1.837,0,0,1-.619,1.5,2.678,2.678,0,0,1-3.093,0,1.838,1.838,0,0,1-.619-1.5v-8.4a1.726,1.726,0,0,1,.658-1.448,2.462,2.462,0,0,1,1.546-.5,2.218,2.218,0,0,1,1.422.454,1.594,1.594,0,0,1,.592,1.316,4.085,4.085,0,0,1,3.653-1.8,3.4,3.4,0,0,1,3.475,2.113,4.456,4.456,0,0,1,1.626-1.54,4.665,4.665,0,0,1,2.317-.573,3.9,3.9,0,0,1,3.021,1.159Z" transform="translate(21.095 36.817)"/><path class="b" d="M122.714-10.082a1.773,1.773,0,0,1,.349,1.139,1.614,1.614,0,0,1-.948,1.487,9.39,9.39,0,0,1-1.975.658,8.863,8.863,0,0,1-2.08.283,7.6,7.6,0,0,1-3.475-.757,5.322,5.322,0,0,1-2.29-2.165,6.585,6.585,0,0,1-.8-3.291,6.661,6.661,0,0,1,.769-3.225,5.5,5.5,0,0,1,2.139-2.212,6.1,6.1,0,0,1,3.1-.79,5.772,5.772,0,0,1,2.942.731,4.984,4.984,0,0,1,1.975,2.068,6.644,6.644,0,0,1,.7,3.133,1.315,1.315,0,0,1-.257.862.921.921,0,0,1-.744.309H115.7a2.677,2.677,0,0,0,.75,1.678,2.588,2.588,0,0,0,1.731.507A4.608,4.608,0,0,0,119.3-9.8c.336-.092.717-.217,1.139-.375.243-.1.48-.184.717-.257a2.249,2.249,0,0,1,.658-.111,1.113,1.113,0,0,1,.9.46Zm-6.437-5.39a2.687,2.687,0,0,0-.6,1.593h3.837c-.1-1.422-.712-2.139-1.85-2.139a1.791,1.791,0,0,0-1.382.547Z" transform="translate(10.063 36.839)"/><path class="b" d="M143.371-17.669a6.031,6.031,0,0,1,1.046,3.877v5.265a1.882,1.882,0,0,1-.586,1.461,2.639,2.639,0,0,1-3.159,0,1.884,1.884,0,0,1-.586-1.461v-5.055a2.578,2.578,0,0,0-.375-1.56,1.349,1.349,0,0,0-1.132-.487,1.976,1.976,0,0,0-1.546.625,2.349,2.349,0,0,0-.573,1.665v4.811a1.881,1.881,0,0,1-.579,1.461,2.639,2.639,0,0,1-3.159,0,1.884,1.884,0,0,1-.586-1.461v-8.4a1.824,1.824,0,0,1,.6-1.4,2.292,2.292,0,0,1,1.58-.546,2.06,2.06,0,0,1,1.455.546,1.749,1.749,0,0,1,.546,1.316,4.116,4.116,0,0,1,1.632-1.408,5,5,0,0,1,2.212-.487A3.886,3.886,0,0,1,143.371-17.669Z" transform="translate(3.01 36.825)"/><path class="b" d="M165.72-17.685a6.03,6.03,0,0,1,1.047,3.877v5.265a1.882,1.882,0,0,1-.586,1.461,2.639,2.639,0,0,1-3.159,0,1.884,1.884,0,0,1-.586-1.461V-13.6a2.578,2.578,0,0,0-.375-1.56,1.349,1.349,0,0,0-1.132-.487,1.976,1.976,0,0,0-1.54.625,2.35,2.35,0,0,0-.573,1.665v4.811a1.882,1.882,0,0,1-.586,1.461,2.639,2.639,0,0,1-3.159,0,1.884,1.884,0,0,1-.586-1.461v-8.4a1.824,1.824,0,0,1,.6-1.4,2.3,2.3,0,0,1,1.586-.546,2.053,2.053,0,0,1,1.468.513,1.73,1.73,0,0,1,.546,1.316,4.116,4.116,0,0,1,1.632-1.408,5,5,0,0,1,2.212-.487A3.885,3.885,0,0,1,165.72-17.685Z" transform="translate(-4.629 36.841)"/><path class="c" d="M69.478-85.662l-.454.382L65.358-82.2,62-79.39A4.609,4.609,0,0,1,60.79-82.5a4.629,4.629,0,0,1,4.568-4.607,4.553,4.553,0,0,1,1.777.355l.3.138.1.053Z" transform="translate(-60.774 98.727)"/><path class="b" d="M89.7-94.439a2.448,2.448,0,0,1-.73,1.744l-.059.059-.2.165-4.693,3.949L81.243-86.2l-7.767,6.516-3.561,2.962-1.632,1.408-.191.151a4.516,4.516,0,0,1-2.745.921,4.607,4.607,0,0,1-4.258-2.908A4.607,4.607,0,0,1,62.2-82.184l.072-.066.336-.283.066-.053,1.639-1.369.1-.092.941-.79,4.607-3.837,2.125-1.778,1.435-1.211a1.087,1.087,0,0,0,.4-.849,1.1,1.1,0,0,0-.658-1.014l-.987-.461-2.357-1.073-1.711-.8-.072-.033-.4-.191a4.613,4.613,0,0,1-2.443-4.068,4.629,4.629,0,0,1,4.607-4.607h.021a4.472,4.472,0,0,1,1.639.3l.546.25,7.852,3.666,2.587,1.2L88.107-96.7h.039l.2.1A2.5,2.5,0,0,1,89.7-94.439Z" transform="translate(-60.764 104.759)"/><path class="c" d="M99.512-68.051a2.476,2.476,0,0,1-.856,1.869l-.08.066-2.3,1.928-2.455,2.06L82.2-52.38a4.51,4.51,0,0,1-2.916,1.053,4.629,4.629,0,0,1-4.607-4.607,4.5,4.5,0,0,1,.033-.52v-.257l.033-.151.039-.171a1.164,1.164,0,0,1,.046-.178,2.264,2.264,0,0,1,.092-.276,3.585,3.585,0,0,1,.29-.658,2.851,2.851,0,0,1,.184-.3c.066-.105.138-.2.2-.29s.118-.138.171-.211a1.72,1.72,0,0,0,.217-.151l.178-.171.184-.164,6.931-5.818a1.1,1.1,0,0,0,.4-.849,1.1,1.1,0,0,0-.532-.942.71.71,0,0,0-.158-.08l-.132-.059-2.06-.961,7.767-6.516,2.053.961,1.823.777,3.87,1.8,1.613.757.382.178A2.457,2.457,0,0,1,99.512-68.051Z" transform="translate(-65.521 94.47)"/></g></g></svg>