<svg xmlns="http://www.w3.org/2000/svg" width="60.628" height="53.05" viewBox="0 0 60.628 53.05"><defs><style>.a,.b{fill:#1c6288;}.a{opacity:0.4;}</style></defs><path class="a" d="M37.893,288H60.628v17.052a5.828,5.828,0,0,1-5.684,5.684H5.684A5.828,5.828,0,0,1,0,305.052V288H22.736v5.684a1.9,1.9,0,0,0,1.895,1.895H36a1.9,1.9,0,0,0,1.895-1.895Z" transform="translate(0 -257.686)"/><path class="b" d="M54.944,43.368H45.471V37.684A5.828,5.828,0,0,0,39.787,32H20.841a5.828,5.828,0,0,0-5.684,5.684v5.684H5.684A5.828,5.828,0,0,0,0,49.052v9.473H60.628V49.052A5.828,5.828,0,0,0,54.944,43.368Zm-17.052,0H22.736V39.579H37.893Z" transform="translate(0 -32)"/></svg>