<svg xmlns="http://www.w3.org/2000/svg" width="46.84" height="37.472" viewBox="0 0 46.84 37.472"><defs><style>.a,.b{fill:#1c6288;}.a{opacity:0.4;}</style></defs><path class="a" d="M31.662,128H44.055a4.684,4.684,0,0,1,4.349,2.945l1.945,4.862H25.368l1.945-4.863A4.684,4.684,0,0,1,31.662,128Zm23.371,24.981H50.349V156.1a3.123,3.123,0,0,0,3.123,3.123h3.123a3.123,3.123,0,0,0,3.123-3.123V151.42a3.053,3.053,0,0,0-.042-.507A6.227,6.227,0,0,1,55.033,152.981Zm-34.349,0a6.227,6.227,0,0,1-4.642-2.069,3.052,3.052,0,0,0-.042.507V156.1a3.123,3.123,0,0,0,3.123,3.123h3.123a3.123,3.123,0,0,0,3.123-3.123v-3.123Z" transform="translate(-14.439 -121.755)"/><path class="b" d="M42.806,78.474l-3.042-7.6A10.878,10.878,0,0,0,29.617,64H17.223a10.878,10.878,0,0,0-10.149,6.87l-3.041,7.6A6.234,6.234,0,0,0,0,84.3v4.684a6.245,6.245,0,0,0,6.245,6.245H40.595a6.245,6.245,0,0,0,6.245-6.245V84.3a6.234,6.234,0,0,0-4.034-5.823ZM12.874,73.189a4.684,4.684,0,0,1,4.349-2.944H29.617a4.684,4.684,0,0,1,4.349,2.944l1.945,4.862H10.929ZM7.807,88.961a3.113,3.113,0,1,1,0-6.226c1.874,0,4.684,2.8,4.684,4.669s-2.81,1.556-4.684,1.556Zm31.227,0c-1.874,0-4.684.311-4.684-1.556s2.81-4.669,4.684-4.669a3.113,3.113,0,1,1,0,6.226Z" transform="translate(0 -63.999)"/></svg>