<svg xmlns="http://www.w3.org/2000/svg" xmlns:xlink="http://www.w3.org/1999/xlink" width="1068" height="998" viewBox="0 0 1068 998"><defs><style>.a,.b,.e{fill:#fff;}.a,.b,.c,.d{stroke:#ffbe57;}.a,.c,.d{stroke-width:2px;}.a{opacity:0.25;}.b{stroke-width:12px;opacity:0.05;}.c,.d,.i,.k{fill:none;}.c{opacity:0.15;}.d{opacity:0.05;}.e{stroke:#eaecee;}.f{fill:#ffbe57;opacity:0.1;}.g,.h{fill:#243141;}.g{font-size:18px;font-family:Nunito-Bold, Nunito;font-weight:700;}.h{font-size:14px;font-family:Nunito-SemiBold, Nunito;font-weight:600;}.i{stroke:#1c6288;stroke-linecap:round;stroke-linejoin:round;stroke-miterlimit:10;stroke-width:3px;}.j{stroke:none;}.l{filter:url(#i);}.m{filter:url(#g);}.n{filter:url(#e);}.o{filter:url(#c);}.p{filter:url(#a);}</style><filter id="a" x="265" y="88" width="554" height="375" filterUnits="userSpaceOnUse"><feOffset dx="-40" dy="43" input="SourceAlpha"/><feGaussianBlur stdDeviation="43" result="b"/><feFlood flood-color="#263140" flood-opacity="0.129"/><feComposite operator="in" in2="b"/><feComposite in="SourceGraphic"/></filter><filter id="c" x="480" y="269" width="554" height="375" filterUnits="userSpaceOnUse"><feOffset dx="-40" dy="43" input="SourceAlpha"/><feGaussianBlur stdDeviation="43" result="d"/><feFlood flood-color="#263140" flood-opacity="0.129"/><feComposite operator="in" in2="d"/><feComposite in="SourceGraphic"/></filter><filter id="e" x="441" y="458" width="554" height="375" filterUnits="userSpaceOnUse"><feOffset dx="-40" dy="43" input="SourceAlpha"/><feGaussianBlur stdDeviation="43" result="f"/><feFlood flood-color="#263140" flood-opacity="0.129"/><feComposite operator="in" in2="f"/><feComposite in="SourceGraphic"/></filter><filter id="g" x="83" y="522" width="554" height="375" filterUnits="userSpaceOnUse"><feOffset dx="-40" dy="43" input="SourceAlpha"/><feGaussianBlur stdDeviation="43" result="h"/><feFlood flood-color="#263140" flood-opacity="0.129"/><feComposite operator="in" in2="h"/><feComposite in="SourceGraphic"/></filter><filter id="i" x="0" y="296" width="554" height="375" filterUnits="userSpaceOnUse"><feOffset dx="-40" dy="43" input="SourceAlpha"/><feGaussianBlur stdDeviation="43" result="j"/><feFlood flood-color="#263140" flood-opacity="0.129"/><feComposite operator="in" in2="j"/><feComposite in="SourceGraphic"/></filter></defs><g transform="translate(123 -4552)"><g transform="translate(-766.475 4436.525)"><g class="a" transform="translate(862.475 264.475)"><circle class="j" cx="350" cy="350" r="350"/><circle class="k" cx="350" cy="350" r="349"/></g><g class="b" transform="translate(926.475 328.475)"><circle class="j" cx="286" cy="286" r="286"/><circle class="k" cx="286" cy="286" r="280"/></g><g class="c" transform="translate(789.475 191.475)"><circle class="j" cx="423" cy="423" r="423"/><circle class="k" cx="423" cy="423" r="422"/></g><g class="d" transform="translate(713.475 115.475)"><circle class="j" cx="499" cy="499" r="499"/><circle class="k" cx="499" cy="499" r="498"/></g></g><g transform="translate(-569 4519)"><g class="p" transform="matrix(1, 0, 0, 1, 446, 33)"><g class="e" transform="translate(434 174)"><rect class="j" width="296" height="117" rx="20"/><rect class="k" x="0.5" y="0.5" width="295" height="116" rx="19.5"/></g></g><rect class="f" width="38" height="38" rx="14" transform="translate(900 241)"/><text class="g" transform="translate(958 247)"><tspan x="0" y="0">Download App</tspan></text><text class="h" transform="translate(958 260)"><tspan x="0" y="14">Apple App Store or Google </tspan><tspan x="0" y="34">Playstore </tspan></text><path class="i" d="M7,10l4,4L22,3" transform="translate(905 251)"/></g><g transform="translate(-354 4700)"><g class="o" transform="matrix(1, 0, 0, 1, 231, -148)"><g class="e" transform="translate(649 355)"><rect class="j" width="296" height="117" rx="20"/><rect class="k" x="0.5" y="0.5" width="295" height="116" rx="19.5"/></g></g><rect class="f" width="38" height="38" rx="14" transform="translate(900 247)"/><text class="g" transform="translate(958 247)"><tspan x="0" y="0">Sign Up</tspan></text><text class="h" transform="translate(958 260)"><tspan x="0" y="14">Create account either as a</tspan><tspan x="0" y="34">Driver, fleet owner etc</tspan></text><path class="i" d="M7,10l4,4L22,3" transform="translate(906 256)"/></g><g transform="translate(-393 4889)"><g class="n" transform="matrix(1, 0, 0, 1, 270, -337)"><g class="e" transform="translate(610 544)"><rect class="j" width="296" height="117" rx="20"/><rect class="k" x="0.5" y="0.5" width="295" height="116" rx="19.5"/></g></g><rect class="f" width="38" height="38" rx="14" transform="translate(900 247)"/><text class="g" transform="translate(958 247)"><tspan x="0" y="0">Make Request</tspan></text><text class="h" transform="translate(958 260)"><tspan x="0" y="14">We have thousands of vetted </tspan><tspan x="0" y="34">trucks and van owners ready</tspan></text><path class="i" d="M7,10l4,4L22,3" transform="translate(905 257)"/></g><g transform="translate(-751 4953)"><g class="m" transform="matrix(1, 0, 0, 1, 628, -401)"><g class="e" transform="translate(252 608)"><rect class="j" width="296" height="117" rx="20"/><rect class="k" x="0.5" y="0.5" width="295" height="116" rx="19.5"/></g></g><rect class="f" width="38" height="38" rx="14" transform="translate(900 247)"/><text class="g" transform="translate(958 247)"><tspan x="0" y="0">Track Request</tspan></text><text class="h" transform="translate(958 260)"><tspan x="0" y="14">Track the progress of your </tspan><tspan x="0" y="34">delivery, Pay, Tip and review</tspan></text><path class="i" d="M7,10l4,4L22,3" transform="translate(905 257)"/></g><g transform="translate(-834 4727)"><g class="l" transform="matrix(1, 0, 0, 1, 711, -175)"><g class="e" transform="translate(169 382)"><rect class="j" width="296" height="117" rx="20"/><rect class="k" x="0.5" y="0.5" width="295" height="116" rx="19.5"/></g></g><rect class="f" width="38" height="38" rx="14" transform="translate(900 247)"/><text class="g" transform="translate(958 247)"><tspan x="0" y="0">Receive Items</tspan></text><text class="h" transform="translate(958 260)"><tspan x="0" y="14">Items gets delivered at </tspan><tspan x="0" y="34">stipulated time. It is that easy</tspan></text><path class="i" d="M7,10l4,4L22,3" transform="translate(905 258)"/></g></g></svg>