<svg xmlns="http://www.w3.org/2000/svg" xmlns:xlink="http://www.w3.org/1999/xlink" width="19" height="19" viewBox="0 0 19 19"><defs><style>.a,.c{fill:#243141;}.b{clip-path:url(#a);}.c{stroke:#c0ccda;stroke-width:0;}</style><clipPath id="a"><rect class="a" width="19" height="19"/></clipPath></defs><g class="b"><path class="c" d="M9.376,7.274a2.325,2.325,0,1,0,.89.177A2.325,2.325,0,0,0,9.376,7.274Zm9.31-2.3a6.12,6.12,0,0,0-.394-2.119A3.75,3.75,0,0,0,16.117.683,6.122,6.122,0,0,0,14,.289C12.789.223,12.432.223,9.376.223s-3.413,0-4.622.066A6.122,6.122,0,0,0,2.635.683,3.75,3.75,0,0,0,.459,2.858,6.122,6.122,0,0,0,.066,4.977C0,6.186,0,6.542,0,9.6s0,3.413.066,4.622A6.432,6.432,0,0,0,.459,16.35a3.7,3.7,0,0,0,.853,1.313,3.648,3.648,0,0,0,1.322.853,6.125,6.125,0,0,0,2.119.394c1.209.066,1.566.066,4.622.066s3.413,0,4.622-.066a6.124,6.124,0,0,0,2.119-.394,3.648,3.648,0,0,0,1.322-.853,3.694,3.694,0,0,0,.853-1.313,6.187,6.187,0,0,0,.394-2.128c.066-1.21.066-1.566.066-4.622S18.752,6.186,18.686,4.977Zm-2.382,7.5a5.37,5.37,0,0,1-.366,1.688,3.619,3.619,0,0,1-2,2,5.372,5.372,0,0,1-1.7.328H6.507a5.372,5.372,0,0,1-1.7-.328,3.49,3.49,0,0,1-2-2,5.148,5.148,0,0,1-.319-1.7V6.73a5.147,5.147,0,0,1,.319-1.7A3.291,3.291,0,0,1,3.619,3.8,3.366,3.366,0,0,1,4.81,3.036a5.372,5.372,0,0,1,1.7-.328h5.738a5.371,5.371,0,0,1,1.7.328,3.49,3.49,0,0,1,2,2,5.372,5.372,0,0,1,.328,1.7V9.6c0,1.931.066,2.128.038,2.869ZM14.8,5.5A2.232,2.232,0,0,0,13.483,4.18a3.75,3.75,0,0,0-1.294-.206H6.563a3.751,3.751,0,0,0-1.294.244A2.231,2.231,0,0,0,3.947,5.492a4,4,0,0,0-.2,1.294v5.626a4,4,0,0,0,.244,1.294,2.231,2.231,0,0,0,1.322,1.322,4,4,0,0,0,1.247.244h5.625a3.748,3.748,0,0,0,1.294-.244A2.231,2.231,0,0,0,14.8,13.706a3.75,3.75,0,0,0,.244-1.294V6.786A3.545,3.545,0,0,0,14.8,5.492ZM9.376,13.181a3.581,3.581,0,1,1,1.992-.6A3.572,3.572,0,0,1,9.376,13.181Zm3.75-6.46a.844.844,0,0,1,0-1.678.844.844,0,0,1,0,1.678Z"/></g></svg>