<svg xmlns="http://www.w3.org/2000/svg" width="20" height="29.09" viewBox="0 0 20 29.09"><defs><style>.a,.b{fill:#71a1fa;}.a{opacity:0.4;}</style></defs><g transform="translate(0 0.001)"><path class="a" d="M9.968,0A9.994,9.994,0,0,0,2.475,16.577a16.322,16.322,0,0,1,2.966,5.2.3.3,0,0,0,.006.044h9.1a.308.308,0,0,1,.006-.044,16.328,16.328,0,0,1,2.966-5.2A9.994,9.994,0,0,0,9.968,0ZM10,5.453A4.55,4.55,0,0,0,5.454,10a.909.909,0,1,1-1.818,0A6.37,6.37,0,0,1,10,3.635a.909.909,0,0,1,0,1.818Z" transform="translate(0 0)"/><path class="b" d="M96,418.179,96,416h9.091v2.179a1.818,1.818,0,0,1-.307,1l-.971,1.462a1.818,1.818,0,0,1-1.514.811H98.793a1.818,1.818,0,0,1-1.513-.811l-.971-1.462A1.818,1.818,0,0,1,96,418.179Z" transform="translate(-90.546 -392.365)"/></g></svg>