<svg xmlns="http://www.w3.org/2000/svg" width="22" height="25.143" viewBox="0 0 22 25.143"><defs><style>.a,.b{fill:#1c6288;}.a{opacity:0.4;}</style></defs><g transform="translate(0 -1)"><path class="a" d="M75.929,12H72V8.464a7.464,7.464,0,1,1,14.929,0V12H83V8.464a3.536,3.536,0,0,0-7.071,0Z" transform="translate(-68.464 0)"/><path class="b" d="M19.643,225H2.357A2.357,2.357,0,0,0,0,227.357v9.429a2.357,2.357,0,0,0,2.357,2.357H19.643A2.357,2.357,0,0,0,22,236.786v-9.429A2.357,2.357,0,0,0,19.643,225Zm-6.679,8.2a1.964,1.964,0,0,1-3.929,0v-2.357a1.964,1.964,0,0,1,3.929,0Z" transform="translate(0 -213)"/></g></svg>