<svg xmlns="http://www.w3.org/2000/svg" width="20.045" height="24.059" viewBox="0 0 20.045 24.059"><defs><style>.a{fill:#fff;}</style></defs><path class="a" d="M14.884,0a5.8,5.8,0,0,0-1.379.161,8.478,8.478,0,0,0-1.091.355c-.334.129-.649.258-.971.355a3.478,3.478,0,0,1-1.019.161A3.99,3.99,0,0,1,9.347.873C9,.777,8.659.648,8.308.52a10.691,10.691,0,0,0-1.1-.353A5.145,5.145,0,0,0,5.952.006,4.683,4.683,0,0,0,4.6.211,5.672,5.672,0,0,0,3.287.806a6.606,6.606,0,0,0-1.209.953,7.313,7.313,0,0,0-1.024,1.28A6.841,6.841,0,0,0,.16,5.455a11.057,11.057,0,0,0-.1,3.016,14.459,14.459,0,0,0,.73,3.322,15.8,15.8,0,0,0,1.608,3.333c.246.387.512.785.8,1.166a8.592,8.592,0,0,0,.933,1.058,4.512,4.512,0,0,0,1.071.771,2.778,2.778,0,0,0,1.217.306h.031a2.976,2.976,0,0,0,.967-.158,8.3,8.3,0,0,0,.823-.348,5.887,5.887,0,0,1,.928-.35,4.939,4.939,0,0,1,1.284-.165h.031a4.685,4.685,0,0,1,1.26.159,5.515,5.515,0,0,1,.905.349,7.886,7.886,0,0,0,.8.349,2.887,2.887,0,0,0,.957.159h.031a2.652,2.652,0,0,0,1.227-.335,4.829,4.829,0,0,0,1.095-.835,9.728,9.728,0,0,0,.956-1.121c.295-.4.566-.806.812-1.192.177-.277.326-.52.459-.748s.249-.441.36-.658.217-.439.33-.685.231-.515.367-.829a5.1,5.1,0,0,1-2.338-1.839,5.546,5.546,0,0,1-.97-2.7,5.38,5.38,0,0,1,.513-2.824,5.118,5.118,0,0,1,2.112-2.216,7.1,7.1,0,0,0-.983-1.034,6.386,6.386,0,0,0-1.11-.767A5.5,5.5,0,0,0,16.086.164,4.613,4.613,0,0,0,14.884,0Z" transform="translate(0 5.631)"/><path class="a" d="M4.791,0a4.069,4.069,0,0,0-.966.2,5.486,5.486,0,0,0-.967.425,5.96,5.96,0,0,0-.893.61,5.187,5.187,0,0,0-.744.749,6.058,6.058,0,0,0-.545.808,5.679,5.679,0,0,0-.423.936A4.642,4.642,0,0,0,.022,4.74,3.707,3.707,0,0,0,.055,5.788h.1a3.624,3.624,0,0,0,1-.146,4.519,4.519,0,0,0,.952-.4,5.078,5.078,0,0,0,.851-.6A4.834,4.834,0,0,0,3.651,3.9a6.132,6.132,0,0,0,.533-.829,5.814,5.814,0,0,0,.406-.951,5.064,5.064,0,0,0,.221-1.036A4.4,4.4,0,0,0,4.791,0Z" transform="translate(9.63)"/></svg>