<svg xmlns="http://www.w3.org/2000/svg" width="26" height="27.733" viewBox="0 0 26 27.733"><defs><style>.a,.b{fill:#1c6288;}.a{opacity:0.4;}</style></defs><g transform="translate(-16)"><path class="a" d="M269,6.933c0,11.987-7.361,18.666-12,20.6a2.616,2.616,0,0,1-1,.2V0a2.61,2.61,0,0,1,1,.2l10.4,4.333a2.6,2.6,0,0,1,1.6,2.4Z" transform="translate(-227)"/><path class="b" d="M29,0V27.733a2.61,2.61,0,0,1-1-.2c-5.8-2.416-12-9.848-12-20.6a2.6,2.6,0,0,1,1.6-2.4L28,.2A2.616,2.616,0,0,1,29,0Z" transform="translate(0 0)"/></g></svg>