<svg xmlns="http://www.w3.org/2000/svg" width="34.05" height="19.862" viewBox="0 0 34.05 19.862"><defs><style>.a,.b{fill:#1c6288;}.a{opacity:0.4;}</style></defs><g transform="translate(-32 -176.023)"><path class="a" d="M65.241,417.9a6.824,6.824,0,0,1-3.425-1.355,2.292,2.292,0,0,0-2.851,0,7.405,7.405,0,0,1-8.616-.089,2.193,2.193,0,0,0-2.761.106,7.411,7.411,0,0,1-8.587-.1,2.229,2.229,0,0,0-2.786.118A6.7,6.7,0,0,1,32.8,417.9a.919.919,0,0,0-.8.929v1.905a.932.932,0,0,0,.987.946,10.631,10.631,0,0,0,4.7-1.532,11.327,11.327,0,0,0,11.35,0,11.327,11.327,0,0,0,11.35,0,10.93,10.93,0,0,0,4.678,1.526.933.933,0,0,0,.987-.946v-1.87a.944.944,0,0,0-.812-.965Z" transform="translate(0 -225.801)"/><path class="b" d="M94.175,182.75a1.9,1.9,0,0,1-.463.758l-5.468,5.276a4.918,4.918,0,0,1-3.383,1.4h-.03a5.035,5.035,0,0,1-3.171-.991,3.794,3.794,0,0,0-2.457-.877,4.348,4.348,0,0,0-2.69.957,4.979,4.979,0,0,1-3.041.912h-.03a5.025,5.025,0,0,1-3.457-1.432l-5.439-5.246a1.892,1.892,0,0,1,.76-3.138l13.242-4.256a1.889,1.889,0,0,1,1.157,0l13.242,4.256a1.892,1.892,0,0,1,1.224,2.379Z" transform="translate(-30.101 0)"/></g></svg>