<svg xmlns="http://www.w3.org/2000/svg" xmlns:xlink="http://www.w3.org/1999/xlink" width="19" height="19" viewBox="0 0 19 19"><defs><style>.a,.c{fill:#1c6288;}.b{clip-path:url(#a);}.c{stroke:#c0ccda;stroke-width:0;}</style><clipPath id="a"><rect class="a" width="19" height="19" transform="translate(-3.859)"/></clipPath></defs><g class="b" transform="translate(3.859)"><path class="c" d="M9.885,0,7.421,0A4.327,4.327,0,0,0,2.864,4.676V6.832H.387A.387.387,0,0,0,0,7.219v3.124a.387.387,0,0,0,.387.387H2.864v7.882A.387.387,0,0,0,3.251,19H6.484a.387.387,0,0,0,.387-.387V10.73h2.9a.387.387,0,0,0,.387-.387V7.219a.387.387,0,0,0-.388-.387H6.87V5c0-.878.21-1.324,1.354-1.324h1.66a.387.387,0,0,0,.387-.387V.392A.387.387,0,0,0,9.884.005Z"/></g></svg>