<svg xmlns="http://www.w3.org/2000/svg" width="60.79" height="42.553" viewBox="0 0 60.79 42.553"><defs><style>.a,.b{fill:#1c6288;}.a{opacity:0.4;}</style></defs><path class="a" d="M21.277,352a6.079,6.079,0,1,0,6.079,6.079A6.079,6.079,0,0,0,21.277,352Zm-15.2,0a6.079,6.079,0,1,0,6.079,6.079A6.079,6.079,0,0,0,6.079,352Zm44.073,0a6.079,6.079,0,1,0,6.079,6.079A6.079,6.079,0,0,0,50.152,352Z" transform="translate(0 -321.605)"/><path class="b" d="M59.014,51.5l-5.557-5.557a6.079,6.079,0,0,0-4.3-1.776H45.592V35.039A3.039,3.039,0,0,0,42.553,32H3.04A3.039,3.039,0,0,0,0,35.039V61.684A9.107,9.107,0,0,1,13.678,63.44a9.119,9.119,0,0,1,16.2,1.995H41.557a9.118,9.118,0,0,1,17.192,0h.521a1.52,1.52,0,0,0,1.52-1.52V55.794A6.059,6.059,0,0,0,59.014,51.5ZM45.592,53.277V48.717h3.562a1.508,1.508,0,0,1,1.073.446l4.113,4.113Z" transform="translate(0 -32)"/></svg>