<svg xmlns="http://www.w3.org/2000/svg" width="20" height="16.244" viewBox="0 0 20 16.244"><defs><style>.a{fill:#1c6288;}</style></defs><g transform="translate(0 -1.597)"><path class="a" d="M17.945,5.645c.013.178.013.355.013.534A11.582,11.582,0,0,1,6.3,17.841,11.591,11.591,0,0,1,0,16a8.594,8.594,0,0,0,.991.049A8.212,8.212,0,0,0,6.079,14.3a4.1,4.1,0,0,1-3.832-2.844,5.2,5.2,0,0,0,.772.064,4.361,4.361,0,0,0,1.08-.139A4.1,4.1,0,0,1,.812,7.358V7.308a4.148,4.148,0,0,0,1.853.52A4.1,4.1,0,0,1,1.4,2.345,11.644,11.644,0,0,0,9.848,6.635a4.547,4.547,0,0,1-.1-.94,4.1,4.1,0,0,1,7.094-2.8,8.087,8.087,0,0,0,2.6-.989,4.079,4.079,0,0,1-1.8,2.258A8.186,8.186,0,0,0,20,3.525a8.838,8.838,0,0,1-2.055,2.12Z" transform="translate(0)"/></g></svg>