<svg xmlns="http://www.w3.org/2000/svg" width="47.05" height="53.771" viewBox="0 0 47.05 53.771"><defs><style>.a,.b{fill:#1c6288;}.a{opacity:0.4;}</style></defs><path class="a" d="M122.886,13.443A13.443,13.443,0,1,1,109.443,0,13.443,13.443,0,0,1,122.886,13.443Z" transform="translate(-85.918)"/><path class="b" d="M32.935,288H31.181a18.285,18.285,0,0,1-15.312,0H14.115A14.117,14.117,0,0,0,0,302.112v4.372a5.041,5.041,0,0,0,5.041,5.041H42.009a5.041,5.041,0,0,0,5.041-5.041v-4.369A14.118,14.118,0,0,0,32.938,288Z" transform="translate(0 -257.754)"/></svg>